# xmcd
#
# Track frame offsets: 
#        300
#        10849
#        19673
#        27030
#        36117
#        45280
#        53974
#        63006
#        72927
#        83472
#        92093
#
# Disc length: 1355 seconds
#
# Revision: 0
# Processed by: cddbd v1.5.1PL0 Copyright (c) Steve Scherf et al.
# Submitted via: ExactAudioCopy v0.95a5
#
DISCID=7605470b
DTITLE=Tom T. Hall - Songs of Fox Hollow - For children of all ages
DYEAR=1974
DGENRE=Country
TTITLE0=The Mysterious Fox Of Fox Hollow
TTITLE1=Sneaky Snake
TTITLE2=How To Talk To A Little Baby Goat
TTITLE3=The Barn Dance
TTITLE4=I Care
TTITLE5=Ole Lonesome George The Basset
TTITLE6=I Wish I Had A Million Friends
TTITLE7=Everybody Loves To Hear A Bird Sing
TTITLE8=I Like To Feel Pretty Inside
TTITLE9=The Song Of The One-Legged Chicken
TTITLE10=I Love
EXTD=(c)1974 Mercury Records/Polygram USA\nKatalog: Mercury 422 832350
EXTD=\nProduced by Jerry Kennedy\n\n
EXTT0=
EXTT1=
EXTT2=
EXTT3=
EXTT4=
EXTT5=
EXTT6=
EXTT7=
EXTT8=
EXTT9=
EXTT10=
PLAYORDER=
